# xmcd
#
# Track frame offsets:
#	150
#	3643
#	21265
#	56863
#	74971
#	105618
#	129200
#	154855
#	167423
#	194444
#	233500
#	257715
#	278380
#
# Disc length: 4126 seconds
#
# Revision: 1
# Processed by: cddbd v1.5.2PL0 Copyright (c) Steve Scherf et al.
# Submitted via: audiograbber 1.83.01
#
DISCID=ae101c0d
DTITLE=Grateful Dead - 70-10-04 Winterland Arena, San Francisco CA
DYEAR=1900
DGENRE=
TTITLE0=Truckin' > KSAN DJ Talk
TTITLE1=Till The Morning Comes
TTITLE2=Brokedown Palace
TTITLE3=Next Time You See Me
TTITLE4=Cold Rain and Snow
TTITLE5=China Cat Sunflower
TTITLE6=I Know You Rider
TTITLE7=Good Lovin'
TTITLE8=Drums
TTITLE9=Good Lovin'
TTITLE10=Sugar Magnolia
TTITLE11=Casey Jones
TTITLE12=Uncle John's Band
EXTD=
EXTT0=
EXTT1=
EXTT2=
EXTT3=
EXTT4=
EXTT5=
EXTT6=
EXTT7=
EXTT8=
EXTT9=
EXTT10=
EXTT11=
EXTT12=
PLAYORDER=
